<svg width="16" height="16" viewBox="0 0 16 16" fill="none" xmlns="http://www.w3.org/2000/svg">
<path d="M1.66675 14.3334L5.36626 12.9105C5.60289 12.8195 5.7212 12.774 5.83189 12.7146C5.93022 12.6618 6.02395 12.6009 6.11211 12.5324C6.21136 12.4554 6.301 12.3658 6.48027 12.1865L14.0001 4.66671C14.7365 3.93033 14.7365 2.73642 14.0001 2.00004C13.2637 1.26366 12.0698 1.26366 11.3334 2.00004L3.8136 9.51985C3.63433 9.69912 3.5447 9.78876 3.46768 9.88801C3.39926 9.97617 3.33835 10.0699 3.28557 10.1682C3.22615 10.2789 3.18065 10.3972 3.08964 10.6339L1.66675 14.3334ZM1.66675 14.3334L3.03883 10.766C3.13701 10.5107 3.1861 10.3831 3.27031 10.3246C3.34389 10.2735 3.43495 10.2542 3.52295 10.271C3.62364 10.2902 3.72034 10.3869 3.91374 10.5803L5.4198 12.0864C5.6132 12.2798 5.7099 12.3765 5.72913 12.4772C5.74593 12.5652 5.72661 12.6562 5.67551 12.7298C5.61705 12.814 5.48941 12.8631 5.23413 12.9613L1.66675 14.3334Z" stroke="white" stroke-opacity="0.5" stroke-width="1.3" stroke-linecap="round" stroke-linejoin="round"/>
</svg>
